# xmcd
#
# Track frame offsets:
#	150
#	21817
#	43315
#	71220
#	92782
#	115035
#	141685
#	166107
#	187537
#	208087
#	229392
#	251040
#	271192
#	292427
#	314377
#	333137
#
# Disc length: 4654 seconds
#
# Revision: 1
# Processed by: cddbd v1.5.1PL0 Copyright (c) Steve Scherf et al.
# Submitted via: CDex 1.50Beta5
#
DISCID=f6122c10
DTITLE=EARTH - CliMax CM SONG SELECTION
DYEAR=2001
DGENRE=Pop
TTITLE0=EARTH/time after time(Original Mix)
TTITLE1=安室奈美恵/think of me
TTITLE2=井手麻理子/太陽の花びら(original mix)
TTITLE3=上田まり/待ちわびた休日
TTITLE4=Every Little Thing/愛のカケラ
TTITLE5=m-flo/come again(Original)
TTITLE6=globe/DEPARTURES(ALBUM MIX)
TTITLE7=島谷ひとみ/解放区
TTITLE8=DA PUMP/Joyful
TTITLE9=Do As Infinity/Oasis
TTITLE10=dream/Heart on Wave(Original Mix)
TTITLE11=浜崎あゆみ/vogue
TTITLE12=BALANCe/NOW I’M HERE(STRAIGHT RUN)
TTITLE13=H∧L/SPLIT UP
TTITLE14=hitomi/君のとなり
TTITLE15=Folder5/Final Fun-Boy
EXTD=
EXTT0=
EXTT1=
EXTT2=
EXTT3=
EXTT4=
EXTT5=
EXTT6=
EXTT7=
EXTT8=
EXTT9=
EXTT10=
EXTT11=
EXTT12=
EXTT13=
EXTT14=
EXTT15=
PLAYORDER=
